<svg version="1.1" id="Layer_1" xmlns="http://www.w3.org/2000/svg" xmlns:xlink="http://www.w3.org/1999/xlink" x="0px" y="0px"
	 width="100%" viewBox="0 0 369 369" enable-background="new 0 0 369 369" xml:space="preserve">
<path fill="#000000" opacity="1.000000" stroke="none" 
	d="
M166.000000,370.000000 
	C110.685234,370.000000 55.870476,370.000000 1.027856,370.000000 
	C1.027856,247.060226 1.027856,124.120461 1.027856,1.090341 
	C123.898056,1.090341 246.796188,1.090341 369.847168,1.090341 
	C369.847168,123.999855 369.847168,246.999908 369.847168,370.000000 
	C302.120514,370.000000 234.310257,370.000000 166.000000,370.000000 
M191.586868,164.123535 
	C191.210205,168.406448 190.833527,172.689362 190.466141,176.866776 
	C222.270218,176.866776 253.038696,176.866776 284.569855,176.866776 
	C284.006592,172.171173 283.505951,167.997406 283.001495,163.002274 
	C283.200134,159.540955 280.719238,160.004776 278.582581,160.003616 
	C266.270386,159.996948 253.958176,160.000046 241.645981,160.000031 
	C226.671692,160.000000 211.697388,160.002594 196.723099,159.997925 
	C194.169876,159.997131 191.338486,159.637146 191.586868,164.123535 
M123.980484,138.600204 
	C119.765305,137.977676 115.550125,137.355164 111.009552,136.684586 
	C111.009552,168.661041 111.009552,199.532455 111.009552,230.766312 
	C113.857063,230.766312 116.377968,231.024384 118.814751,230.682632 
	C120.681419,230.420837 122.441864,229.401535 125.167381,228.864288 
	C128.813782,229.061035 127.959656,226.314697 127.969498,224.358505 
	C128.029633,212.410675 127.999954,200.462372 127.999962,188.514236 
	C127.999977,173.579056 127.995781,158.643875 128.003448,143.708694 
	C128.004761,141.148865 128.335480,138.353027 123.980484,138.600204 
M192.140244,205.162460 
	C193.310471,206.107056 194.476181,207.869843 195.651611,207.876358 
	C223.571686,208.031021 251.492950,207.963348 279.413635,208.046494 
	C282.368530,208.055283 283.285492,206.835266 283.623077,203.559372 
	C283.623077,199.469238 283.623077,195.379105 283.623077,191.112976 
	C252.661865,191.112976 221.829544,191.112976 189.920853,191.112976 
	C190.774689,195.846451 191.532211,200.045990 192.140244,205.162460 
M164.660141,230.398727 
	C168.728226,230.398727 172.796310,230.398727 176.959198,230.398727 
	C176.959198,199.249039 176.959198,168.440659 176.959198,137.255356 
	C174.125366,137.255356 171.614487,136.998383 169.187271,137.338516 
	C167.321732,137.599945 165.561584,138.613235 162.837616,139.141129 
	C161.892197,140.479111 160.129639,141.812347 160.121826,143.155777 
	C159.961472,170.771606 160.037262,198.388702 159.949234,226.005173 
	C159.939651,229.014816 160.862320,230.401291 164.660141,230.398727 
M254.500122,217.265320 
	C233.424500,217.265320 212.348877,217.265320 191.023468,217.265320 
	C191.023468,221.998611 191.023468,226.209335 191.023468,230.530075 
	C222.087601,230.530075 252.798401,230.530075 283.722778,230.530075 
	C283.722778,226.075699 283.722778,221.871246 283.722778,217.265335 
	C274.079987,217.265335 264.790070,217.265335 254.500122,217.265320 
M212.500153,150.757126 
	C236.213760,150.757126 259.927368,150.757126 283.822479,150.757126 
	C283.822479,145.975830 283.822479,141.893021 283.822479,137.579071 
	C252.752304,137.579071 221.942947,137.579071 190.939392,137.579071 
	C190.939392,142.011688 190.939392,146.089310 190.939392,150.757126 
	C197.964691,150.757126 204.732498,150.757126 212.500153,150.757126 
M148.961151,230.724167 
	C149.560013,229.041916 150.673828,227.361801 150.680771,225.677109 
	C150.791107,198.891022 150.800110,172.104263 150.738510,145.317856 
	C150.717209,136.054031 152.128799,137.530594 142.465439,137.141327 
	C138.354660,136.975739 137.102036,138.170990 137.129822,142.383987 
	C137.313034,170.167572 137.219803,197.952957 137.238556,225.737732 
	C137.239624,227.320847 137.433350,228.903824 137.556061,230.770676 
	C141.436783,230.770676 144.750565,230.770676 148.961151,230.724167 
M97.287102,182.500137 
	C97.287102,167.588364 97.287102,152.676590 97.287102,137.598938 
	C92.538116,137.598938 88.478867,137.598938 84.390671,137.598938 
	C84.390671,168.759827 84.390671,199.574585 84.390671,230.311859 
	C88.873611,230.311859 92.913780,230.311859 97.287117,230.311859 
	C97.287117,214.418701 97.287117,198.959427 97.287102,182.500137 
M239.500000,154.000000 
	C253.546951,154.000000 267.593903,154.000000 281.640839,154.000000 
	C281.636963,153.762665 281.633057,153.525330 281.629181,153.287994 
	C251.809402,153.287994 221.989624,153.287994 192.169846,153.287994 
	C192.169205,153.525330 192.168564,153.762665 192.167923,154.000000 
	C207.611938,154.000000 223.055969,154.000000 239.500000,154.000000 
M258.500000,215.000000 
	C266.284546,215.000000 274.069092,215.000000 281.853638,215.000000 
	C281.851807,214.764694 281.849976,214.529404 281.848145,214.294098 
	C251.961197,214.294098 222.074280,214.294098 192.187347,214.294098 
	C192.186539,214.529404 192.185730,214.764694 192.184921,215.000000 
	C213.956619,215.000000 235.728302,215.000000 258.500000,215.000000 
M241.500000,234.000000 
	C254.880386,234.000000 268.260773,234.000000 281.641144,234.000000 
	C281.636627,233.762894 281.632141,233.525772 281.627655,233.288666 
	C251.808868,233.288666 221.990112,233.288666 192.171341,233.288666 
	C192.170776,233.525772 192.170212,233.762894 192.169647,234.000000 
	C208.279770,234.000000 224.389877,234.000000 241.500000,234.000000 
M134.000000,157.503540 
	C134.000000,181.221588 134.000000,204.939636 134.000000,228.657684 
	C134.239914,228.655014 134.479828,228.652359 134.719742,228.649704 
	C134.719742,199.815567 134.719742,170.981445 134.719742,142.147324 
	C134.479828,142.143692 134.239914,142.140060 134.000000,142.136429 
	C134.000000,146.926315 134.000000,151.716202 134.000000,157.503540 
M239.500000,134.000000 
	C224.785614,134.000000 210.071228,134.000000 195.356827,134.000000 
	C195.360443,134.237640 195.364059,134.475281 195.367661,134.712921 
	C224.189896,134.712921 253.012115,134.712921 281.834351,134.712921 
	C281.835144,134.475281 281.835907,134.237640 281.836700,134.000000 
	C268.057800,134.000000 254.278900,134.000000 239.500000,134.000000 
M153.000000,198.500000 
	C153.000000,206.283630 153.000000,214.067261 153.000000,221.850891 
	C153.235748,221.849075 153.471497,221.847244 153.707245,221.845428 
	C153.707245,196.291077 153.707245,170.736725 153.707245,145.182373 
	C153.471497,145.181351 153.235748,145.180313 153.000000,145.179276 
	C153.000000,162.619522 153.000000,180.059753 153.000000,198.500000 
M134.419739,138.484955 
	C134.419739,138.484955 134.522415,138.425354 134.419739,138.484955 
M191.485016,134.580002 
	C191.485016,134.580002 191.425659,134.477661 191.485016,134.580002 
z"/>
<path fill="#EFEFEF" opacity="1.000000" stroke="none" 
	d="
M255.000137,217.265320 
	C264.790070,217.265335 274.079987,217.265335 283.722778,217.265335 
	C283.722778,221.871246 283.722778,226.075699 283.722778,230.530075 
	C252.798401,230.530075 222.087601,230.530075 191.023468,230.530075 
	C191.023468,226.209335 191.023468,221.998611 191.023468,217.265320 
	C212.348877,217.265320 233.424500,217.265320 255.000137,217.265320 
z"/>
<path fill="#EFEFEF" opacity="1.000000" stroke="none" 
	d="
M212.000229,150.757126 
	C204.732498,150.757126 197.964691,150.757126 190.939392,150.757126 
	C190.939392,146.089310 190.939392,142.011688 190.939392,137.579071 
	C221.942947,137.579071 252.752304,137.579071 283.822479,137.579071 
	C283.822479,141.893021 283.822479,145.975830 283.822479,150.757126 
	C259.927368,150.757126 236.213760,150.757126 212.000229,150.757126 
z"/>
<path fill="#F7F7F7" opacity="1.000000" stroke="none" 
	d="
M163.754562,139.292175 
	C165.561584,138.613235 167.321732,137.599945 169.187271,137.338516 
	C171.614487,136.998383 174.125366,137.255356 176.959198,137.255356 
	C176.959198,168.440659 176.959198,199.249039 176.959198,230.398727 
	C172.796310,230.398727 168.728226,230.398727 164.332596,229.732803 
	C164.000885,222.913727 164.009415,216.760513 163.990311,210.607407 
	C163.916504,186.835648 163.833893,163.063919 163.754562,139.292175 
z"/>
<path fill="#EEEEEE" opacity="1.000000" stroke="none" 
	d="
M148.512756,230.747421 
	C144.750565,230.770676 141.436783,230.770676 137.556061,230.770676 
	C137.433350,228.903824 137.239624,227.320847 137.238556,225.737732 
	C137.219803,197.952957 137.313034,170.167572 137.129822,142.383987 
	C137.102036,138.170990 138.354660,136.975739 142.465439,137.141327 
	C152.128799,137.530594 150.717209,136.054031 150.738510,145.317856 
	C150.800110,172.104263 150.791107,198.891022 150.680771,225.677109 
	C150.673828,227.361801 149.560013,229.041916 148.512756,230.747421 
z"/>
<path fill="#F8F8F8" opacity="1.000000" stroke="none" 
	d="
M192.289749,204.245514 
	C191.532211,200.045990 190.774689,195.846451 189.920853,191.112976 
	C221.829544,191.112976 252.661865,191.112976 283.623077,191.112976 
	C283.623077,195.379105 283.623077,199.469238 282.850311,203.791931 
	C275.923737,204.019577 269.769867,203.995071 263.616119,204.013214 
	C239.840652,204.083282 216.065201,204.166931 192.289749,204.245514 
z"/>
<path fill="#F7F7F7" opacity="1.000000" stroke="none" 
	d="
M97.287109,183.000153 
	C97.287117,198.959427 97.287117,214.418701 97.287117,230.311859 
	C92.913780,230.311859 88.873611,230.311859 84.390671,230.311859 
	C84.390671,199.574585 84.390671,168.759827 84.390671,137.598938 
	C88.478867,137.598938 92.538116,137.598938 97.287102,137.598938 
	C97.287102,152.676590 97.287102,167.588364 97.287109,183.000153 
z"/>
<path fill="#F1F1F1" opacity="1.000000" stroke="none" 
	d="
M124.249557,228.719147 
	C122.441864,229.401535 120.681419,230.420837 118.814751,230.682632 
	C116.377968,231.024384 113.857063,230.766312 111.009552,230.766312 
	C111.009552,199.532455 111.009552,168.661041 111.009552,136.684586 
	C115.550125,137.355164 119.765305,137.977676 124.009468,139.354874 
	C124.029854,145.089050 124.001480,150.068634 124.015999,155.048065 
	C124.087608,179.605118 124.170593,204.162125 124.249557,228.719147 
M120.008545,174.500000 
	C120.008446,165.019257 120.056389,155.538071 119.970703,146.058090 
	C119.951920,143.978867 121.030785,141.089279 117.107536,140.996490 
	C113.245590,140.905167 114.015930,143.659973 114.013481,145.846664 
	C113.984955,171.294952 113.986557,196.743301 114.010506,222.191589 
	C114.012589,224.400894 113.298912,227.128937 117.145264,227.004471 
	C121.070732,226.877457 119.958817,223.968430 119.968544,221.905579 
	C120.041550,206.437332 120.008438,190.968582 120.008545,174.500000 
z"/>
<path fill="#F3F3F3" opacity="1.000000" stroke="none" 
	d="
M283.005280,163.823639 
	C283.505951,167.997406 284.006592,172.171173 284.569855,176.866776 
	C253.038696,176.866776 222.270218,176.866776 190.466141,176.866776 
	C190.833527,172.689362 191.210205,168.406448 192.331146,164.039062 
	C223.052048,163.910934 253.028671,163.867279 283.005280,163.823639 
M218.500000,167.995728 
	C211.515244,167.997269 204.525177,167.861267 197.550827,168.131302 
	C196.342575,168.178085 195.200867,169.943512 194.028412,170.915100 
	C195.145126,171.941742 196.195663,173.753235 197.390411,173.853958 
	C201.683990,174.215897 206.026291,174.001999 210.350174,174.002121 
	C231.969650,174.002747 253.589111,173.994827 275.208588,174.011871 
	C277.791504,174.013901 280.798828,174.230087 279.766663,170.386810 
	C279.468597,169.277039 276.909271,168.110229 275.377167,168.097366 
	C256.752472,167.941132 238.126007,167.995804 218.500000,167.995728 
z"/>
<path fill="#050505" opacity="1.000000" stroke="none" 
	d="
M283.003387,163.412964 
	C253.028671,163.867279 223.052048,163.910934 192.681824,163.855347 
	C191.338486,159.637146 194.169876,159.997131 196.723099,159.997925 
	C211.697388,160.002594 226.671692,160.000000 241.645981,160.000031 
	C253.958176,160.000046 266.270386,159.996948 278.582581,160.003616 
	C280.719238,160.004776 283.200134,159.540955 283.003387,163.412964 
z"/>
<path fill="#050505" opacity="1.000000" stroke="none" 
	d="
M163.296082,139.216644 
	C163.833893,163.063919 163.916504,186.835648 163.990311,210.607407 
	C164.009415,216.760513 164.000885,222.913727 163.969009,229.534454 
	C160.862320,230.401291 159.939651,229.014816 159.949234,226.005173 
	C160.037262,198.388702 159.961472,170.771606 160.121826,143.155777 
	C160.129639,141.812347 161.892197,140.479111 163.296082,139.216644 
z"/>
<path fill="#050505" opacity="1.000000" stroke="none" 
	d="
M192.214996,204.703995 
	C216.065201,204.166931 239.840652,204.083282 263.616119,204.013214 
	C269.769867,203.995071 275.923737,204.019577 282.541382,204.098770 
	C283.285492,206.835266 282.368530,208.055283 279.413635,208.046494 
	C251.492950,207.963348 223.571686,208.031021 195.651611,207.876358 
	C194.476181,207.869843 193.310471,206.107056 192.214996,204.703995 
z"/>
<path fill="#050505" opacity="1.000000" stroke="none" 
	d="
M124.708466,228.791718 
	C124.170593,204.162125 124.087608,179.605118 124.015999,155.048065 
	C124.001480,150.068634 124.029854,145.089050 124.143646,139.690704 
	C128.335480,138.353027 128.004761,141.148865 128.003448,143.708694 
	C127.995781,158.643875 127.999977,173.579056 127.999962,188.514236 
	C127.999954,200.462372 128.029633,212.410675 127.969498,224.358505 
	C127.959656,226.314697 128.813782,229.061035 124.708466,228.791718 
z"/>
<path fill="#090909" opacity="1.000000" stroke="none" 
	d="
M239.000000,154.000000 
	C223.055969,154.000000 207.611938,154.000000 192.167923,154.000000 
	C192.168564,153.762665 192.169205,153.525330 192.169846,153.287994 
	C221.989624,153.287994 251.809402,153.287994 281.629181,153.287994 
	C281.633057,153.525330 281.636963,153.762665 281.640839,154.000000 
	C267.593903,154.000000 253.546951,154.000000 239.000000,154.000000 
z"/>
<path fill="#090909" opacity="1.000000" stroke="none" 
	d="
M258.000000,215.000000 
	C235.728302,215.000000 213.956619,215.000000 192.184921,215.000000 
	C192.185730,214.764694 192.186539,214.529404 192.187347,214.294098 
	C222.074280,214.294098 251.961197,214.294098 281.848145,214.294098 
	C281.849976,214.529404 281.851807,214.764694 281.853638,215.000000 
	C274.069092,215.000000 266.284546,215.000000 258.000000,215.000000 
z"/>
<path fill="#090909" opacity="1.000000" stroke="none" 
	d="
M241.000000,234.000000 
	C224.389877,234.000000 208.279770,234.000000 192.169647,234.000000 
	C192.170212,233.762894 192.170776,233.525772 192.171341,233.288666 
	C221.990112,233.288666 251.808868,233.288666 281.627655,233.288666 
	C281.632141,233.525772 281.636627,233.762894 281.641144,234.000000 
	C268.260773,234.000000 254.880386,234.000000 241.000000,234.000000 
z"/>
<path fill="#090909" opacity="1.000000" stroke="none" 
	d="
M134.000000,157.004822 
	C134.000000,151.716202 134.000000,146.926315 134.000000,142.136429 
	C134.239914,142.140060 134.479828,142.143692 134.719742,142.147324 
	C134.719742,170.981445 134.719742,199.815567 134.719742,228.649704 
	C134.479828,228.652359 134.239914,228.655014 134.000000,228.657684 
	C134.000000,204.939636 134.000000,181.221588 134.000000,157.004822 
z"/>
<path fill="#090909" opacity="1.000000" stroke="none" 
	d="
M240.000000,134.000000 
	C254.278900,134.000000 268.057800,134.000000 281.836700,134.000000 
	C281.835907,134.237640 281.835144,134.475281 281.834351,134.712921 
	C253.012115,134.712921 224.189896,134.712921 195.367661,134.712921 
	C195.364059,134.475281 195.360443,134.237640 195.356827,134.000000 
	C210.071228,134.000000 224.785614,134.000000 240.000000,134.000000 
z"/>
<path fill="#090909" opacity="1.000000" stroke="none" 
	d="
M153.000000,198.000000 
	C153.000000,180.059753 153.000000,162.619522 153.000000,145.179276 
	C153.235748,145.180313 153.471497,145.181351 153.707245,145.182373 
	C153.707245,170.736725 153.707245,196.291077 153.707245,221.845428 
	C153.471497,221.847244 153.235748,221.849075 153.000000,221.850891 
	C153.000000,214.067261 153.000000,206.283630 153.000000,198.000000 
z"/>
<path fill="#090909" opacity="1.000000" stroke="none" 
	d="
M134.471069,138.455154 
	C134.522415,138.425354 134.419739,138.484955 134.471069,138.455154 
z"/>
<path fill="#090909" opacity="1.000000" stroke="none" 
	d="
M191.455338,134.528839 
	C191.425659,134.477661 191.485016,134.580002 191.455338,134.528839 
z"/>
<path fill="#FFFFFF" opacity="1.000000" stroke="none" 
	d="
M120.008545,175.000000 
	C120.008438,190.968582 120.041550,206.437332 119.968544,221.905579 
	C119.958817,223.968430 121.070732,226.877457 117.145264,227.004471 
	C113.298912,227.128937 114.012589,224.400894 114.010506,222.191589 
	C113.986557,196.743301 113.984955,171.294952 114.013481,145.846664 
	C114.015930,143.659973 113.245590,140.905167 117.107536,140.996490 
	C121.030785,141.089279 119.951920,143.978867 119.970703,146.058090 
	C120.056389,155.538071 120.008446,165.019257 120.008545,175.000000 
z"/>
<path fill="#FFFFFF" opacity="1.000000" stroke="none" 
	d="
M219.000000,167.995728 
	C238.126007,167.995804 256.752472,167.941132 275.377167,168.097366 
	C276.909271,168.110229 279.468597,169.277039 279.766663,170.386810 
	C280.798828,174.230087 277.791504,174.013901 275.208588,174.011871 
	C253.589111,173.994827 231.969650,174.002747 210.350174,174.002121 
	C206.026291,174.001999 201.683990,174.215897 197.390411,173.853958 
	C196.195663,173.753235 195.145126,171.941742 194.028412,170.915100 
	C195.200867,169.943512 196.342575,168.178085 197.550827,168.131302 
	C204.525177,167.861267 211.515244,167.997269 219.000000,167.995728 
z"/>
</svg>